<?xml version="1.0" encoding="UTF-8"?>
<svg id="Camada_2" data-name="Camada 2" xmlns="http://www.w3.org/2000/svg" viewBox="0 0 290.29 288.84">
  <defs>
    <style>
      .cls-1 {
        fill: #f4f4b4;
      }
    </style>
  </defs>
  <g id="Camada_1-2" data-name="Camada 1">
    <g>
      <path class="cls-1" d="M206.76,285.65c-2.62-2.75-3.32-7.43-1.02-10.62l23.09-25.44-37.45-38.01c-8-13.61,6.95-29.22,20.76-22.26,1.54.78,4.18,2.94,5.6,4.13,11.77,9.89,21.85,23.89,34.05,33.35,2.48,0,22.02-22.76,27.27-23.66,5.8.02,10.01,4,10.56,9.75,2.09,21.49-1.65,46.32-.02,68.17-.63,4.79-3.28,6.69-7.84,7.13-21.76,2.09-46.82-1.67-68.94,0-1.89.13-4.8-1.2-6.07-2.53Z"/>
      <path class="cls-1" d="M209.29.87l73.59.2c3.43,1.05,5.19,3.96,5.26,7.47-1.62,21.92,2.02,46.6,0,68.18-.98,10.43-8.88,10.14-15.76,4.47-3.13-2.58-21.16-21.29-22.83-21.16l-38.01,37.4c-13.8,7.86-29.53-7.05-21.97-21.22.85-1.59,2.96-4.07,4.2-5.53,4.14-4.86,32.39-30.74,32.84-33.02.07-1.19-.76-2.01-1.39-2.88-4.63-6.41-13.98-13.41-19.09-19.83s-3.65-10.35,3.16-14.07Z"/>
      <path class="cls-1" d="M82.72,13.16l-22.87,24.5c8.99,9.91,19.04,19.02,28.03,28.91,6.71,7.38,14.02,13.9,8.17,24.66-1.81,3.33-5.21,6.53-8.9,7.57-13.84,3.93-18.6-8.04-27.77-14.96l-23.27-23.95-25.45,24.55c-4.94,2.58-9.58-2-10.04-6.98-2.01-21.86,1.61-46.75,0-68.94C1.12,3.35,3.31,1.17,8.48.67c22.18-2.13,47.81,1.64,70.36.08,5.9,1.75,8.49,7.75,3.88,12.41Z"/>
      <path class="cls-1" d="M58.3,252.2c.9.06,1.62.49,2.26,1.09,7.92,7.54,15.9,15.07,23.5,22.93,3.08,6.46-.56,11.3-7.39,11.95-21.59,2.03-46.26-1.6-68.18,0-4.64-.05-7.81-3.22-7.86-7.86,1.6-22.2-2-47.06,0-68.94.42-4.56,4.74-9.67,9.31-6.99,1.62.95,2.1,2.87,3.42,4.06,7.46,6.76,15.15,13.25,22.11,20.54,11.61-10.16,22-23.88,33.66-33.69,2.18-1.84,6.48-5.25,9.17-5.8,13.71-2.82,24.55,11.25,17.58,23.56l-36.85,37.26-.73,1.87Z"/>
    </g>
  </g>
</svg>