<?xml version="1.0" standalone="no"?>
<!DOCTYPE svg PUBLIC "-//W3C//DTD SVG 20010904//EN"
 "http://www.w3.org/TR/2001/REC-SVG-20010904/DTD/svg10.dtd">
<svg version="1.0" xmlns="http://www.w3.org/2000/svg"
 width="6736.000000pt" height="4763.000000pt" viewBox="0 0 6736.000000 4763.000000"
 preserveAspectRatio="xMidYMid meet">

<g transform="translate(0.000000,4763.000000) scale(0.100000,-0.100000)"
fill="#000000" stroke="none">
<path d="M33161 34586 c-18 -6 -51 -27 -73 -45 -157 -132 -60 -372 149 -371
206 1 307 222 164 360 -67 66 -156 86 -240 56z"/>
<path d="M30226 34079 c-51 -12 -160 -64 -176 -84 -11 -13 -10 -22 5 -53 27
-54 32 -193 10 -267 -20 -71 -74 -180 -128 -259 l-40 -59 48 33 c203 139 407
358 451 482 28 80 8 169 -43 196 -30 17 -86 21 -127 11z"/>
<path d="M37077 33893 c-3 -62 -13 -122 -27 -163 -19 -55 -547 -1326 -642
-1545 -47 -108 -104 -200 -157 -253 l-48 -48 239 -99 c132 -55 243 -101 246
-102 4 -2 7 34 8 80 1 107 21 170 149 476 56 136 110 263 118 283 l16 37 197
-80 c258 -105 353 -130 515 -136 151 -7 242 10 349 63 241 121 400 462 335
719 -30 116 -81 202 -179 301 -166 167 -184 176 -1102 560 -8 4 -13 -27 -17
-93z m528 -185 c188 -75 297 -163 361 -294 l39 -78 0 -135 c0 -130 -2 -140
-35 -236 -82 -232 -214 -391 -378 -457 -46 -18 -77 -22 -157 -23 -115 0 -153
10 -318 88 -81 38 -107 55 -104 66 3 9 105 255 227 546 122 292 226 540 231
553 8 22 9 22 46 6 21 -8 61 -25 88 -36z"/>
<path d="M33185 33895 c-64 -14 -130 -38 -152 -57 -11 -9 -10 -14 8 -31 53
-49 51 -33 85 -862 28 -682 27 -675 86 -718 55 -41 191 -28 320 30 l58 26 -29
18 c-16 10 -34 32 -40 51 -7 20 -24 325 -41 714 -31 719 -35 757 -83 802 -45
42 -107 50 -212 27z"/>
<path d="M32535 33875 c-91 -24 -164 -56 -224 -96 -181 -121 -284 -328 -298
-601 -3 -65 -9 -118 -14 -118 -11 0 -27 80 -59 305 -36 254 -49 304 -92 341
-30 25 -37 26 -99 21 -74 -6 -174 -43 -227 -83 l-35 -27 27 -14 c55 -29 63
-60 191 -811 94 -545 127 -718 140 -732 14 -15 31 -20 69 -20 58 0 306 58 306
72 0 5 -7 22 -15 37 -28 55 -56 178 -106 471 -49 285 -50 298 -40 382 21 166
77 287 169 370 74 67 187 108 299 108 109 0 139 40 130 170 -6 89 -44 240 -61
239 -6 0 -33 -6 -61 -14z"/>
<path d="M34520 33855 c-95 -21 -234 -94 -308 -160 -171 -155 -271 -391 -289
-679 -23 -387 160 -704 477 -822 223 -84 479 -69 670 38 30 17 96 73 147 123
79 80 98 105 142 196 73 150 102 269 108 452 6 164 -5 257 -43 369 -75 221
-238 383 -460 458 -90 30 -112 33 -239 36 -97 3 -160 -1 -205 -11z m344 -59
c96 -40 178 -163 211 -316 48 -221 15 -678 -66 -930 -31 -95 -93 -210 -140
-258 -64 -67 -129 -95 -219 -95 -128 0 -215 57 -278 182 -56 112 -67 187 -67
451 0 252 12 357 61 555 29 117 96 263 149 323 40 46 108 90 158 103 44 11
148 3 191 -15z"/>
<path d="M30375 33365 c-95 -21 -225 -72 -311 -122 -104 -60 -220 -177 -262
-264 -56 -112 -79 -271 -44 -302 21 -19 123 -47 172 -47 49 0 144 24 175 44
33 22 32 52 -4 124 -58 115 -64 237 -16 331 51 101 128 151 242 159 64 4 79 1
127 -22 106 -52 168 -150 260 -409 31 -87 56 -161 56 -165 0 -4 -30 -18 -67
-31 -108 -37 -328 -146 -417 -205 -164 -109 -282 -262 -307 -400 -31 -168 76
-378 230 -453 82 -41 202 -44 314 -10 194 61 359 222 432 421 15 42 30 75 32
73 2 -2 16 -39 32 -81 15 -43 40 -91 55 -107 74 -78 218 -51 354 66 23 20 42
40 42 44 0 4 -14 11 -32 16 -19 6 -39 22 -50 41 -10 17 -94 242 -187 501 -92
259 -181 493 -196 522 -72 131 -188 233 -311 271 -78 24 -224 26 -319 5z m500
-958 l78 -218 -18 -64 c-48 -177 -222 -345 -357 -345 -92 0 -166 59 -222 180
-27 58 -30 75 -30 160 -1 87 2 101 31 160 59 121 175 227 348 317 44 23 83 39
86 35 4 -4 41 -105 84 -225z"/>
<path d="M39187 33007 c-124 -39 -180 -171 -123 -293 56 -119 194 -168 312
-109 75 37 114 102 114 189 -1 114 -124 229 -242 225 -13 0 -40 -6 -61 -12z"/>
<path d="M28800 32624 c-51 -10 -157 -48 -215 -77 -202 -101 -338 -250 -402
-442 -24 -72 -27 -94 -27 -225 1 -128 4 -155 28 -234 83 -273 256 -512 461
-635 154 -93 355 -125 525 -82 166 41 324 138 426 261 55 68 118 193 140 280
35 139 2 321 -73 399 -23 24 -32 29 -28 16 17 -46 17 -191 0 -251 -36 -127
-117 -237 -230 -313 -103 -69 -159 -86 -275 -85 -114 0 -177 21 -278 88 -61
41 -202 172 -191 178 2 2 36 14 74 26 190 64 370 178 472 301 62 75 126 201
142 279 23 109 5 289 -34 349 -23 35 -132 104 -215 136 -62 25 -92 30 -175 33
-55 1 -111 0 -125 -2z m5 -158 c72 -36 173 -144 218 -235 141 -282 18 -522
-337 -656 l-66 -25 -37 58 c-55 86 -136 248 -161 324 -31 96 -45 202 -38 278
23 224 229 349 421 256z"/>
<path d="M38776 32426 c5 -35 1 -56 -19 -100 -14 -30 -181 -305 -372 -611
-190 -305 -353 -571 -361 -591 -40 -97 50 -188 234 -235 99 -25 116 -25 102 0
-17 32 -11 83 13 126 13 22 172 279 354 571 182 291 340 548 351 570 60 118
32 188 -101 255 -48 25 -161 58 -199 59 -4 0 -5 -20 -2 -44z"/>
<path d="M39684 31864 c15 -57 -30 -116 -513 -673 -480 -554 -486 -563 -461
-611 11 -21 128 -118 204 -170 l50 -33 15 24 c46 69 143 186 398 480 298 344
314 358 455 418 55 22 77 26 168 26 95 0 111 -3 162 -28 94 -46 158 -136 158
-221 0 -43 -36 -133 -76 -189 -21 -29 -193 -232 -384 -452 -191 -220 -352
-410 -358 -422 -16 -30 -15 -88 2 -122 32 -61 122 -123 235 -162 70 -25 72
-24 59 11 -9 26 -7 38 13 75 13 25 175 218 359 431 353 407 386 448 426 530
98 201 61 382 -109 521 -183 150 -441 172 -672 56 -42 -21 -47 -22 -34 -7 9
11 49 57 89 104 85 100 125 176 116 223 -13 67 -113 153 -229 196 -74 27 -81
27 -73 -5z"/>
<path d="M27230 31554 c-76 -21 -135 -57 -205 -128 -108 -109 -165 -252 -165
-411 0 -76 27 -220 51 -268 6 -12 -36 26 -93 85 -57 59 -119 116 -138 128 -51
29 -98 26 -155 -12 -55 -37 -138 -143 -159 -205 l-15 -43 38 0 c26 0 51 -9 78
-29 22 -16 257 -266 523 -555 276 -300 493 -529 505 -532 13 -3 36 1 51 9 31
16 224 210 224 225 0 4 -18 21 -40 38 -22 16 -187 189 -367 384 -290 316 -330
364 -364 433 -87 181 -72 375 39 490 53 55 101 77 167 77 64 0 106 -15 172
-62 25 -18 219 -221 430 -451 212 -230 396 -422 409 -428 67 -25 138 3 203 78
40 47 92 136 106 180 6 21 4 22 -23 17 -18 -4 -41 0 -60 10 -18 9 -200 200
-406 424 -206 224 -399 424 -428 446 -70 51 -160 93 -227 106 -68 13 -83 12
-151 -6z"/>
<path d="M41872 30876 c-13 -24 -40 -59 -60 -78 -20 -19 -430 -331 -909 -692
-480 -361 -878 -666 -883 -677 -20 -37 9 -87 130 -227 l72 -83 67 64 c36 35
228 185 427 334 388 291 411 305 556 326 170 24 323 -38 396 -161 22 -38 27
-59 27 -112 0 -75 -25 -126 -97 -199 -24 -24 -234 -187 -468 -364 -234 -176
-435 -329 -447 -340 -62 -55 -50 -146 29 -232 45 -50 164 -135 188 -135 5 0
10 15 10 34 0 23 9 45 26 66 15 17 215 173 446 347 262 198 443 342 482 384
197 208 189 452 -21 640 -137 123 -350 176 -542 135 -41 -9 -76 -14 -78 -12
-2 1 184 144 413 316 228 173 431 332 450 353 65 77 55 142 -34 239 -49 52
-133 118 -151 118 -4 0 -16 -20 -29 -44z"/>
<path d="M25224 30651 c-56 -24 -158 -177 -171 -256 -5 -30 -3 -33 30 -39 19
-3 54 -17 78 -29 24 -12 426 -325 892 -695 467 -371 862 -678 878 -684 44 -15
95 -1 138 38 45 40 103 146 124 225 l14 56 -43 -5 c-33 -3 -52 1 -80 17 -20
12 -401 311 -846 664 -445 353 -833 657 -863 675 -55 35 -115 48 -151 33z"/>
<path d="M33215 30333 c-1403 -92 -2700 -619 -3770 -1528 -169 -144 -535 -506
-671 -665 -521 -606 -919 -1277 -1182 -1995 -192 -524 -310 -1046 -369 -1635
-22 -219 -25 -911 -5 -1115 111 -1140 440 -2089 1036 -2995 252 -382 497 -682
825 -1011 234 -233 430 -404 676 -589 983 -737 2072 -1155 3320 -1272 188 -18
892 -18 1080 0 1315 124 2451 576 3464 1380 412 327 820 748 1138 1173 692
926 1119 2012 1242 3159 48 439 46 970 -5 1415 -86 757 -303 1484 -645 2160
-773 1530 -2114 2682 -3739 3213 -508 166 -1005 262 -1552 301 -132 10 -717
12 -843 4z m945 -217 c1306 -121 2449 -597 3465 -1442 168 -139 600 -571 739
-739 490 -590 846 -1202 1094 -1885 182 -502 291 -993 349 -1570 24 -247 24
-863 0 -1110 -18 -173 -59 -483 -75 -557 l-9 -38 -63 125 c-246 490 -574 981
-924 1387 -127 147 -408 445 -439 466 -19 12 -27 32 -41 104 -188 959 -717
1898 -1440 2553 -1162 1053 -2706 1467 -4226 1134 -1259 -276 -2371 -1081
-3038 -2199 -259 -435 -458 -940 -557 -1410 l-27 -130 -123 -125 c-501 -512
-909 -1076 -1236 -1713 -62 -121 -98 -183 -102 -173 -10 26 -55 339 -71 496
-95 909 22 1877 331 2734 748 2077 2557 3617 4711 4010 278 51 483 75 852 100
117 8 683 -4 830 -18z m-65 -1710 c1227 -137 2318 -741 3083 -1709 319 -403
593 -918 750 -1407 45 -139 75 -250 70 -256 -2 -2 -51 35 -109 83 -751 620
-1676 1094 -2599 1332 -259 67 -346 86 -585 126 -1180 200 -2387 81 -3500
-345 -654 -250 -1332 -649 -1862 -1094 -57 -47 -103 -81 -103 -75 0 6 13 57
30 113 350 1195 1199 2214 2309 2770 535 268 1104 427 1711 476 154 13 642 4
805 -14z m-163 -1972 c65 -45 270 -247 376 -369 511 -595 1061 -1576 1339
-2390 137 -404 199 -694 210 -991 7 -191 -6 -318 -46 -437 -27 -80 -29 -82
-62 -85 -34 -3 -34 -2 -58 65 -60 173 -208 437 -331 593 -124 155 -303 317
-480 432 -274 179 -576 290 -955 350 -126 19 -504 16 -650 -6 -353 -54 -657
-169 -940 -357 -358 -239 -619 -567 -780 -981 -35 -90 -41 -98 -65 -98 -35 0
-43 10 -68 90 -133 413 6 1129 383 1980 288 651 695 1323 1080 1786 190 229
414 438 479 448 17 2 142 3 279 1 l247 -2 42 -29z m-41 -3035 c213 -26 449
-95 646 -189 475 -227 815 -611 980 -1107 l47 -143 186 0 187 0 41 129 c153
473 482 851 941 1080 320 160 625 231 1000 231 l194 0 -7 -62 c-43 -381 -185
-882 -358 -1263 -303 -668 -746 -1237 -1317 -1693 -238 -190 -596 -414 -866
-542 -513 -243 -1006 -374 -1620 -430 -152 -14 -666 -5 -825 14 -1080 133
-2003 586 -2745 1347 -663 680 -1090 1536 -1235 2479 -11 69 -20 131 -20 139
0 11 41 12 238 9 284 -6 424 -29 665 -108 332 -110 595 -273 823 -513 189
-197 322 -422 405 -681 l44 -136 189 2 189 3 32 100 c192 600 612 1028 1211
1235 173 60 351 95 574 114 68 6 305 -3 401 -15z m-4936 -272 c101 -616 348
-1245 701 -1784 810 -1237 2115 -2011 3599 -2134 190 -16 716 -7 895 16 786
97 1498 362 2128 791 411 280 807 657 1112 1059 475 625 800 1401 906 2161 10
71 18 130 19 131 1 2 53 -11 117 -27 505 -127 911 -428 1157 -858 l53 -93 -52
-182 c-401 -1403 -1304 -2637 -2530 -3455 -312 -208 -734 -433 -1085 -578
-320 -132 -767 -267 -1115 -338 -1356 -275 -2788 -87 -4015 527 -1589 794
-2772 2239 -3230 3945 l-22 83 50 87 c247 431 647 732 1142 857 l130 33 7 -41
c4 -23 19 -113 33 -200z"/>
<path d="M33435 29528 c-9 -24 -135 -456 -135 -462 0 -3 15 -6 33 -6 l32 0 68
233 c37 127 68 235 67 240 0 12 -60 8 -65 -5z"/>
<path d="M33787 29526 c-59 -22 -78 -43 -65 -72 14 -29 19 -29 60 -4 98 60
203 -14 154 -108 -8 -15 -66 -70 -130 -122 -103 -84 -116 -99 -116 -126 l0
-32 148 -7 c81 -3 154 -7 162 -8 10 -1 16 9 18 31 l3 32 -58 1 c-32 1 -82 4
-112 7 l-54 7 101 83 c104 87 132 125 132 185 0 38 -31 90 -71 119 -34 25
-123 33 -172 14z"/>
<path d="M32868 29507 l-86 -9 -7 -122 c-4 -67 -6 -131 -4 -142 6 -30 52 -31
72 0 23 35 77 51 122 36 43 -14 65 -44 65 -88 0 -46 -16 -71 -55 -88 -46 -19
-82 -17 -134 7 -35 15 -46 17 -53 7 -45 -70 127 -119 232 -65 57 29 82 64 87
124 7 70 -24 128 -80 154 -50 22 -105 24 -152 5 l-35 -15 0 33 c0 19 3 47 6
64 6 28 10 31 58 37 144 17 136 15 136 46 0 28 -2 29 -42 28 -24 -1 -82 -6
-130 -12z"/>
<path d="M34360 29452 c-62 -33 -120 -156 -120 -256 0 -156 135 -256 266 -197
80 37 126 128 128 256 1 68 -3 87 -24 125 -33 59 -87 90 -160 90 -35 0 -68 -7
-90 -18z m141 -58 c57 -29 74 -119 43 -224 -20 -66 -37 -94 -70 -108 -42 -20
-81 -14 -116 17 -27 24 -32 36 -36 88 -7 101 36 211 92 233 32 13 54 12 87 -6z"/>
<path d="M32319 29411 c-45 -9 -105 -46 -126 -78 -15 -23 -15 -26 5 -46 l22
-21 38 37 c65 63 147 59 172 -9 15 -40 3 -68 -86 -200 -46 -67 -84 -132 -84
-143 0 -49 1 -50 170 -12 88 19 160 38 160 42 0 4 -4 19 -9 32 l-10 24 -102
-23 c-57 -13 -104 -22 -106 -21 -1 2 32 54 73 116 65 100 74 119 74 160 0 100
-84 163 -191 142z"/>
<path d="M34910 29347 c-30 -10 -35 -17 -35 -42 0 -24 4 -29 20 -27 89 13 108
13 134 3 28 -12 51 -47 51 -77 0 -45 -31 -72 -169 -145 -120 -63 -141 -78
-147 -102 -3 -16 -4 -30 -1 -33 4 -5 286 -84 300 -84 9 0 30 51 23 57 -2 2
-44 15 -93 29 -48 13 -95 26 -103 30 -9 3 27 28 95 65 125 68 143 82 161 126
32 75 2 147 -78 187 -56 28 -103 32 -158 13z"/>
<path d="M31755 29256 c-37 -16 -92 -77 -101 -112 -4 -14 -4 -58 -2 -98 4 -60
11 -86 40 -137 47 -86 99 -123 171 -123 64 0 126 30 159 76 34 48 38 162 8
242 -24 63 -76 128 -121 152 -35 17 -114 18 -154 0z m110 -60 c42 -18 78 -72
100 -150 32 -110 1 -182 -83 -193 -38 -5 -45 -2 -81 33 -28 29 -45 58 -60 108
-12 37 -21 79 -21 92 0 46 28 94 62 109 41 18 42 18 83 1z"/>
<path d="M35438 29164 c-53 -28 -74 -107 -41 -154 9 -13 13 -25 7 -27 -109
-36 -144 -134 -77 -214 58 -69 207 -103 269 -63 55 36 72 128 33 178 l-20 26
26 0 c52 0 105 78 91 134 -24 97 -198 169 -288 120z m164 -70 c74 -38 56 -134
-25 -134 -43 0 -99 31 -115 63 -11 22 -10 31 2 56 9 16 24 32 33 34 24 7 72
-2 105 -19z m-87 -188 c48 -20 70 -58 58 -99 -13 -46 -52 -63 -109 -47 -45 13
-94 58 -94 86 0 19 19 57 34 66 18 12 74 9 111 -6z"/>
<path d="M31227 29047 c-47 -15 -102 -59 -123 -98 -14 -28 -14 -32 2 -50 24
-26 29 -24 55 17 25 41 73 74 107 74 35 0 82 -52 82 -89 0 -17 -25 -91 -55
-164 -59 -143 -60 -144 -45 -181 l9 -25 132 60 c182 83 170 75 157 104 -6 14
-16 25 -21 25 -5 0 -50 -18 -99 -41 -50 -22 -92 -39 -93 -37 -2 2 16 50 40
108 58 139 62 168 35 224 -16 33 -32 50 -64 65 -48 24 -65 25 -119 8z"/>
<path d="M30445 28601 c-82 -21 -162 -86 -191 -157 -43 -104 22 -261 129 -313
123 -59 282 3 337 131 36 85 20 169 -52 260 -47 60 -151 97 -223 79z m130
-100 c73 -57 106 -162 71 -229 -42 -81 -148 -115 -225 -71 -74 41 -118 135
-98 209 10 41 50 87 92 106 43 20 126 13 160 -15z"/>
<path d="M29802 28328 c-6 -8 -10 -27 -9 -43 2 -27 -1 -30 -40 -35 -23 -4 -48
-12 -57 -19 -20 -17 -20 -70 -1 -95 21 -28 46 -5 38 35 -5 26 -3 29 20 29 32
0 79 17 89 33 13 21 9 64 -10 87 -15 19 -20 20 -30 8z"/>
<path d="M29828 28145 l-28 -24 81 -233 c44 -128 83 -236 87 -240 4 -4 20 3
36 16 l29 23 -17 49 -17 49 78 72 c43 40 84 73 91 73 7 0 31 -9 54 -21 l40
-21 30 28 29 29 -223 112 c-123 61 -227 112 -233 112 -5 0 -22 -10 -37 -24z
m266 -173 c4 -7 -105 -112 -117 -112 -6 0 -8 7 -52 127 l-34 93 99 -50 c54
-27 101 -53 104 -58z"/>
<path d="M29466 27799 l-127 -132 22 -24 23 -23 52 51 53 52 149 -141 148
-141 28 27 27 27 -148 142 -148 141 30 34 c69 75 68 72 41 97 l-23 22 -127
-132z"/>
<path d="M29175 27448 c-32 -17 -95 -80 -111 -110 -8 -15 -14 -50 -14 -79 0
-46 4 -55 39 -90 34 -34 45 -39 84 -39 40 0 53 6 99 45 29 25 67 52 85 62 30
15 33 15 57 -1 14 -9 28 -27 32 -40 13 -52 -49 -130 -121 -153 -34 -11 -42
-30 -22 -58 14 -18 16 -18 62 -1 55 21 106 70 136 128 43 84 7 181 -78 209
-50 16 -86 3 -159 -57 -70 -57 -100 -66 -127 -36 -48 53 4 129 121 178 1 1 -3
13 -9 28 -13 28 -40 33 -74 14z"/>
<path d="M28751 26884 c-60 -97 -80 -139 -73 -146 6 -6 96 -64 199 -129 144
-90 191 -115 199 -106 19 20 164 256 164 267 0 11 -47 36 -54 29 -2 -2 -32
-49 -66 -104 -35 -55 -64 -101 -65 -103 -1 -1 -29 16 -63 38 l-62 39 61 98 62
97 -23 18 c-12 10 -26 16 -30 13 -5 -3 -32 -44 -61 -91 -29 -46 -56 -87 -61
-90 -9 -6 -93 40 -103 57 -4 5 23 57 58 114 l65 104 -23 15 c-14 9 -28 16 -32
16 -4 -1 -46 -62 -92 -136z"/>
<path d="M28514 26426 c-57 -49 -95 -125 -101 -200 -4 -53 -1 -68 24 -115 49
-93 165 -152 268 -137 132 20 232 180 196 314 -11 40 -17 45 -93 83 -44 22
-84 37 -88 32 -5 -4 -26 -47 -48 -95 -38 -83 -40 -89 -22 -98 35 -19 47 -11
70 45 12 30 26 55 31 55 4 0 24 -8 44 -17 42 -20 54 -61 35 -120 -38 -115
-135 -153 -248 -97 -123 61 -133 197 -21 298 38 35 39 37 23 61 -9 14 -19 25
-23 25 -4 0 -25 -15 -47 -34z"/>
<path d="M25350 29204 c-110 -20 -219 -84 -308 -178 -191 -205 -294 -523 -237
-735 29 -110 119 -250 161 -251 93 -2 303 201 267 259 -5 9 -50 37 -99 63
-185 98 -261 246 -207 404 23 69 111 156 176 173 62 18 166 10 238 -18 50 -19
361 -190 382 -210 4 -5 -9 -37 -29 -71 -130 -223 -224 -503 -224 -670 0 -234
141 -414 360 -461 360 -77 634 404 469 823 -11 28 -18 52 -17 53 2 2 34 -15
73 -38 80 -47 144 -58 192 -34 76 40 137 149 150 270 6 57 5 60 -13 53 -41
-17 -54 -17 -98 2 -25 11 -220 121 -433 245 -446 258 -464 267 -558 296 -68
21 -195 34 -245 25z m639 -644 l200 -115 30 -65 c98 -210 39 -479 -115 -530
-135 -45 -353 80 -415 238 -32 82 -33 254 -1 366 28 98 81 228 92 224 5 -2 98
-55 209 -118z"/>
<path d="M42144 28623 c-40 -5 -55 -36 -62 -124 -5 -73 10 -152 39 -211 33
-64 45 -65 159 -6 92 49 107 53 180 56 95 5 160 -14 216 -62 81 -69 121 -193
94 -289 -15 -56 -72 -131 -135 -180 -49 -37 -386 -208 -408 -206 -7 0 -34 46
-62 102 -67 135 -187 315 -269 404 -187 202 -397 262 -591 170 -100 -48 -183
-130 -216 -214 -61 -157 -7 -356 138 -513 96 -104 200 -166 346 -205 l79 -21
-88 -45 c-110 -55 -129 -79 -128 -162 0 -80 33 -145 115 -229 l61 -63 12 34
c6 19 27 46 46 61 19 16 231 121 470 234 239 114 465 227 502 252 123 83 196
181 233 309 25 83 16 232 -19 338 -91 275 -274 485 -475 547 -66 21 -180 32
-237 23z m-382 -653 c125 -38 259 -157 367 -323 26 -40 40 -72 35 -77 -22 -21
-417 -200 -442 -200 -47 0 -142 29 -206 63 -72 38 -152 114 -191 182 -53 90
-33 189 54 268 108 98 247 129 383 87z"/>
<path d="M23960 27662 c-164 -43 -306 -183 -395 -389 -27 -63 -335 -1017 -335
-1038 0 -3 26 -3 58 1 82 9 190 -10 375 -68 673 -207 1500 -474 1561 -503 41
-19 98 -54 126 -76 28 -22 53 -39 54 -37 2 1 74 227 160 502 170 541 192 635
182 776 -12 179 -63 297 -176 410 -180 181 -433 230 -641 125 -105 -54 -199
-150 -282 -290 l-42 -71 -1 101 c-3 297 -161 504 -429 560 -89 19 -134 18
-215 -3z m125 -387 c98 -26 218 -90 275 -145 31 -30 63 -76 83 -117 31 -66 32
-72 32 -203 0 -110 -5 -149 -23 -210 -24 -84 -80 -231 -90 -242 -4 -4 -214 58
-467 137 -252 80 -460 145 -462 145 -15 0 84 324 127 415 58 122 143 200 250
230 65 18 185 13 275 -10z m1085 -286 c177 -49 329 -159 390 -283 73 -147 63
-296 -36 -548 l-47 -118 -37 0 c-21 0 -73 7 -116 15 -76 14 -873 261 -885 273
-11 12 105 353 147 432 68 129 184 224 304 250 64 13 192 4 280 -21z"/>
<path d="M43960 27200 c0 -5 -24 -25 -52 -44 -44 -30 -221 -86 -1093 -352
-572 -174 -1052 -323 -1067 -332 -92 -53 -72 -204 48 -356 l47 -59 16 34 c10
20 32 42 56 55 22 12 492 160 1045 328 553 168 1029 318 1058 332 72 35 95 72
89 144 -6 66 -51 171 -96 223 -33 37 -51 46 -51 27z"/>
<path d="M42115 25145 c-56 -19 -110 -83 -125 -147 -24 -98 25 -214 106 -253
119 -56 257 -4 299 114 19 55 19 84 0 149 -37 124 -154 181 -280 137z"/>
<path d="M25046 24568 c-55 -15 -119 -81 -135 -141 -28 -98 3 -199 78 -252 59
-41 155 -47 221 -13 64 33 103 92 108 168 7 89 -4 126 -50 176 -29 31 -55 48
-91 59 -57 17 -75 17 -131 3z"/>
<path d="M42642 23779 c-267 -45 -472 -230 -568 -513 -41 -118 -57 -230 -57
-376 1 -304 103 -527 299 -657 149 -99 397 -126 578 -63 83 28 141 68 222 152
90 94 152 187 260 390 147 278 239 406 338 472 168 111 406 74 522 -82 53 -73
77 -164 72 -276 -3 -84 -8 -102 -41 -169 -84 -169 -232 -234 -476 -207 l-115
13 -19 -24 c-16 -20 -18 -34 -14 -86 7 -66 44 -187 71 -228 14 -22 24 -25 72
-25 64 0 183 37 247 76 154 95 272 286 323 520 25 119 24 324 -4 436 -77 312
-280 481 -577 482 -175 0 -295 -52 -430 -188 -91 -91 -161 -193 -260 -376
-149 -276 -271 -428 -390 -485 -50 -25 -74 -30 -158 -33 -210 -9 -353 73 -429
245 -30 69 -37 221 -13 309 33 123 124 231 239 285 108 51 225 61 388 35 48
-8 97 -12 108 -9 64 17 68 174 9 336 l-21 57 -62 -1 c-33 -1 -85 -5 -114 -10z"/>
<path d="M24475 23169 c-108 -14 -259 -56 -340 -93 -358 -165 -523 -511 -425
-891 69 -270 241 -447 515 -531 83 -25 104 -28 260 -28 152 0 181 3 275 26
347 88 559 277 637 568 38 144 16 372 -51 525 -91 205 -278 353 -517 410 -82
19 -264 27 -354 14z m599 -374 c189 -50 279 -151 280 -315 0 -64 -4 -83 -29
-128 -90 -164 -324 -274 -731 -344 -159 -27 -474 -32 -564 -9 -126 32 -217 97
-260 187 -32 67 -34 179 -4 245 57 123 214 226 450 294 106 31 323 72 449 84
121 13 336 5 409 -14z"/>
<path d="M42220 21785 c-152 -31 -249 -84 -361 -195 -75 -75 -94 -100 -138
-191 -64 -133 -84 -215 -85 -349 0 -126 18 -202 75 -318 69 -142 200 -248 329
-267 49 -8 49 -8 -24 50 -104 82 -167 224 -169 380 -2 155 46 286 138 381 97
98 223 144 400 144 170 0 163 10 89 -138 -85 -169 -114 -273 -121 -427 -6
-143 9 -222 64 -333 41 -82 130 -181 207 -231 42 -26 60 -31 110 -31 305 0
548 243 612 614 57 326 -116 630 -454 800 -212 107 -478 151 -672 111z m640
-471 c187 -75 333 -192 392 -312 25 -51 31 -75 31 -130 0 -214 -187 -333 -437
-278 -274 61 -420 271 -362 519 18 78 62 185 100 245 l25 41 83 -26 c46 -13
121 -40 168 -59z"/>
<path d="M24145 21255 c-79 -17 -225 -74 -231 -89 -7 -19 30 -108 76 -180 142
-224 400 -333 705 -296 55 6 103 13 107 13 3 1 7 -2 8 -8 3 -13 -55 -34 -289
-106 -290 -90 -326 -112 -325 -204 0 -38 9 -70 32 -117 30 -62 105 -158 122
-158 4 0 11 11 14 25 15 60 0 54 1071 418 457 155 434 140 396 259 -13 40 -41
115 -63 165 l-40 93 -42 -26 c-78 -48 -171 -86 -451 -181 l-280 -96 -120 0
c-128 -1 -196 13 -285 58 -112 57 -192 168 -224 314 -9 41 -21 82 -27 92 -7
15 -69 41 -89 38 -3 0 -32 -6 -65 -14z"/>
<path d="M41406 20324 c-42 -42 -168 -268 -155 -278 2 -2 33 -16 69 -33 36
-16 238 -137 450 -267 436 -270 469 -296 543 -445 41 -82 42 -87 42 -185 0
-89 -3 -108 -25 -150 -14 -27 -42 -63 -63 -80 -37 -29 -43 -31 -125 -31 -77 0
-95 4 -152 31 -36 17 -280 164 -542 327 -262 163 -489 299 -503 303 -35 9 -75
-36 -142 -157 -58 -105 -73 -149 -51 -149 30 0 181 -87 533 -309 260 -163 384
-247 417 -282 61 -64 113 -157 134 -239 45 -176 -39 -347 -183 -374 -44 -8
-125 9 -191 39 -29 13 -264 155 -522 315 -508 316 -508 316 -579 274 -61 -36
-124 -164 -137 -280 -7 -55 -6 -56 14 -45 30 16 68 14 110 -8 20 -10 222 -133
447 -273 494 -306 481 -299 575 -333 188 -68 347 -36 459 92 113 127 161 325
122 493 -16 67 -82 211 -118 259 -22 29 -24 33 -7 27 160 -67 298 -79 395 -34
109 50 188 145 234 281 56 168 17 375 -101 540 l-36 50 38 -23 c22 -13 64 -39
94 -58 138 -87 222 -104 279 -56 55 46 106 156 125 275 l6 36 -53 -5 c-44 -3
-63 1 -106 22 -28 15 -312 189 -631 387 -318 197 -592 362 -607 365 -22 4 -35
0 -57 -22z"/>
<path d="M25940 20285 c0 -54 -70 -98 -705 -455 -341 -191 -628 -359 -638
-372 -16 -21 -16 -27 -3 -64 14 -40 105 -193 145 -244 l20 -25 23 21 c42 39
129 91 508 304 206 116 400 218 430 228 40 12 90 17 185 17 121 0 134 -2 190
-28 174 -81 232 -242 134 -375 -47 -65 -116 -108 -624 -393 -258 -145 -482
-275 -497 -290 -19 -18 -28 -38 -28 -59 0 -50 71 -177 147 -261 l33 -37 54 52
c41 40 154 107 516 311 255 143 489 278 519 300 79 59 149 140 185 215 27 57
31 76 31 150 0 77 -4 92 -37 163 -106 222 -343 344 -615 318 -40 -4 -73 -6
-73 -5 0 1 51 31 112 65 62 35 134 84 160 109 43 42 48 51 48 92 0 74 -70 186
-159 254 -53 41 -61 42 -61 9z"/>
<path d="M26717 18823 c-14 -4 -6 -13 35 -43 85 -61 128 -131 128 -208 0 -60
-37 -121 -113 -186 -97 -82 -912 -736 -918 -736 -3 0 -42 51 -87 114 -85 119
-122 156 -154 156 -30 0 -80 -29 -71 -43 4 -6 54 -70 112 -142 57 -71 108
-135 113 -141 5 -7 -25 -38 -87 -88 -174 -142 -213 -203 -181 -279 19 -47 95
-128 154 -166 49 -31 104 -50 101 -35 -6 32 6 60 44 101 37 40 162 148 194
166 7 4 37 -24 77 -72 36 -44 75 -82 86 -86 19 -6 80 11 80 22 0 2 -37 49 -81
105 -45 55 -77 103 -72 107 78 52 937 759 989 813 81 85 116 150 122 224 15
178 -198 393 -413 417 -22 2 -48 2 -58 0z"/>
<path d="M27520 17937 c0 -31 -8 -56 -29 -88 -16 -24 -241 -282 -500 -574
-394 -443 -471 -535 -471 -559 0 -23 13 -42 53 -81 55 -53 206 -171 210 -164
2 2 19 29 38 59 37 57 593 691 655 747 52 46 181 110 260 129 133 31 258 0
334 -82 49 -54 60 -80 60 -147 0 -57 -21 -111 -72 -184 -18 -27 -192 -228
-388 -448 -195 -220 -365 -413 -378 -429 -44 -57 -20 -115 83 -199 55 -45 151
-107 166 -107 3 0 20 28 37 63 24 48 114 156 382 457 468 527 494 567 495 755
0 90 -3 106 -28 157 -53 108 -168 201 -300 243 -138 44 -306 30 -461 -39 -32
-14 -60 -26 -63 -26 -2 0 37 46 87 103 126 143 152 205 116 276 -17 32 -69 80
-124 115 -31 19 -142 66 -157 66 -3 0 -5 -19 -5 -43z"/>
<path d="M39781 17920 c-321 -85 -554 -361 -569 -675 -5 -118 8 -191 49 -273
26 -52 123 -161 134 -150 3 2 -8 33 -23 68 -36 89 -38 232 -4 332 48 139 155
264 280 326 64 31 86 36 161 40 48 2 113 -1 145 -8 99 -20 336 -152 299 -166
-33 -14 -196 -130 -250 -178 -203 -185 -304 -417 -272 -626 13 -85 48 -187 83
-241 19 -28 40 -42 105 -67 251 -100 475 -47 697 161 100 94 164 187 207 299
30 80 32 89 32 233 0 145 -1 153 -34 249 -75 217 -237 419 -454 565 -170 115
-402 159 -586 111z m774 -814 c102 -154 141 -268 133 -391 -6 -92 -44 -164
-113 -217 -92 -70 -203 -76 -324 -17 -90 44 -204 159 -251 254 -33 67 -35 75
-35 175 0 99 2 109 33 173 41 82 128 173 237 246 l80 53 92 -97 c51 -53 118
-134 148 -179z"/>
<path d="M38610 16983 c-47 -9 -122 -44 -179 -83 -161 -108 -277 -306 -297
-506 l-7 -65 -51 77 c-65 99 -91 118 -159 118 -89 0 -205 -83 -270 -193 l-18
-31 33 0 c25 0 42 -8 65 -32 17 -18 149 -220 294 -448 230 -364 272 -425 343
-496 89 -89 167 -135 264 -155 309 -64 763 234 847 556 17 69 20 183 4 254 -9
42 -15 51 -41 60 -72 25 -198 2 -292 -53 -45 -26 -64 -56 -50 -77 4 -7 31 -46
60 -86 60 -84 84 -150 84 -233 0 -120 -61 -215 -171 -264 -132 -60 -268 -12
-383 134 -49 63 -216 323 -216 336 0 5 35 32 77 59 228 148 419 337 497 493
83 166 70 335 -39 480 -96 128 -239 184 -395 155z m-20 -273 c53 -27 127 -108
161 -175 36 -73 47 -168 29 -246 -19 -84 -84 -198 -156 -277 -66 -72 -168
-162 -184 -162 -5 0 -65 89 -134 198 -138 216 -138 215 -115 337 29 157 152
319 261 345 42 10 93 2 138 -20z"/>
<path d="M29055 16763 c-20 -107 -12 -94 -644 -1095 l-143 -226 -95 70 c-113
84 -170 118 -200 118 -23 0 -86 -47 -81 -61 2 -5 77 -55 168 -113 192 -121
184 -104 130 -266 -97 -292 -236 -464 -360 -447 -108 14 -155 89 -171 272 -10
119 -22 178 -42 203 -15 19 -71 14 -108 -11 -40 -27 -118 -121 -150 -182 l-24
-44 35 -37 c57 -60 187 -152 274 -194 223 -108 426 -91 604 50 66 52 126 128
203 258 33 56 65 102 70 102 5 0 41 -20 81 -45 79 -49 124 -57 151 -27 10 10
17 21 17 24 0 3 -45 34 -100 68 -55 35 -100 64 -100 66 0 1 182 291 404 643
222 352 407 649 411 661 4 13 0 31 -10 46 -20 31 -121 97 -232 153 l-83 41 -5
-27z"/>
<path d="M37145 16146 c-68 -28 -183 -82 -193 -91 -2 -2 11 -28 28 -58 17 -30
105 -250 197 -489 l166 -433 4 -111 c10 -216 -63 -362 -216 -435 -57 -28 -151
-30 -198 -6 -44 23 -98 81 -132 141 -16 28 -115 281 -221 561 -105 281 -198
520 -206 532 -56 88 -211 59 -344 -64 -59 -54 -67 -73 -31 -73 20 0 52 -32 74
-75 8 -16 94 -241 192 -500 98 -258 194 -501 214 -540 47 -91 146 -196 219
-232 79 -38 200 -44 292 -13 134 45 231 118 303 228 65 99 91 179 113 347 l6
49 42 -110 c74 -195 111 -240 198 -238 61 1 177 57 243 119 l49 45 -34 18
c-19 9 -47 35 -62 57 -15 22 -140 339 -278 705 -163 431 -258 671 -272 683
-29 24 -62 21 -153 -17z"/>
<path d="M30622 15920 c-319 -58 -554 -309 -664 -711 -19 -72 -23 -108 -23
-249 0 -180 10 -228 66 -342 125 -256 399 -420 699 -422 341 -1 611 218 748
606 134 378 59 731 -198 944 -72 59 -215 129 -315 154 -94 24 -238 33 -313 20z
m340 -80 c57 -16 130 -70 165 -123 108 -162 72 -528 -94 -942 -134 -334 -292
-505 -469 -505 -108 0 -207 59 -260 154 -86 156 -69 413 52 775 110 331 242
543 384 616 69 36 150 45 222 25z"/>
<path d="M35061 15555 c-129 -24 -271 -109 -342 -208 l-28 -39 -12 46 c-21 86
-93 119 -204 97 -62 -13 -162 -57 -204 -90 l-24 -19 30 -16 c21 -10 36 -29 47
-58 8 -24 87 -513 175 -1088 88 -575 165 -1061 171 -1080 28 -98 84 -137 179
-125 70 9 174 48 218 81 l33 25 -29 25 c-16 13 -36 42 -45 65 -14 34 -130 748
-123 755 1 2 34 -13 72 -32 141 -70 285 -79 444 -29 219 70 377 246 442 491
27 102 36 299 20 428 -54 424 -269 713 -576 771 -92 18 -145 18 -244 0z m121
-132 c186 -101 320 -452 335 -878 11 -310 -58 -506 -206 -582 -54 -28 -73 -33
-134 -33 -84 0 -127 10 -220 52 -46 21 -69 38 -72 52 -3 12 -39 244 -81 516
-57 376 -75 512 -71 566 9 153 120 301 250 335 55 14 145 1 199 -28z"/>
<path d="M33001 15429 c-276 -72 -473 -293 -547 -614 -28 -120 -26 -409 4
-520 61 -226 202 -406 387 -495 110 -53 181 -70 316 -77 228 -11 413 54 559
196 112 110 194 268 233 451 24 112 28 340 8 435 -71 341 -263 553 -565 625
-110 27 -292 26 -395 -1z m315 -44 c87 -26 166 -111 213 -231 91 -234 86 -777
-10 -1069 -50 -149 -112 -235 -203 -283 -43 -22 -64 -26 -131 -26 -96 0 -136
16 -203 79 -126 117 -180 350 -169 720 15 484 114 739 314 811 50 18 128 17
189 -1z"/>
</g>
</svg>
